<svg xmlns="http://www.w3.org/2000/svg" viewBox="0 0 1200 900" role="img" aria-labelledby="title desc">
  <title id="title">Beta Relocation man and van in Ilford</title>
  <desc id="desc">Illustrated moving van on an East London street for the Ilford man and van page.</desc>
  <defs>
    <linearGradient id="sky" x1="0" x2="1" y1="0" y2="1">
      <stop offset="0" stop-color="#f3f0ff"/>
      <stop offset="1" stop-color="#e0f7ff"/>
    </linearGradient>
    <linearGradient id="van" x1="0" x2="1">
      <stop offset="0" stop-color="#7c3aed"/>
      <stop offset="1" stop-color="#06b6d4"/>
    </linearGradient>
  </defs>
  <rect width="1200" height="900" rx="36" fill="url(#sky)"/>
  <rect x="0" y="650" width="1200" height="250" fill="#d9d4ec"/>
  <rect x="72" y="190" width="210" height="460" rx="16" fill="#ffffff"/>
  <rect x="335" y="150" width="180" height="500" rx="16" fill="#ffffff"/>
  <rect x="825" y="210" width="250" height="440" rx="16" fill="#ffffff"/>
  <g fill="#cbc3e8">
    <rect x="105" y="238" width="58" height="70" rx="8"/>
    <rect x="190" y="238" width="58" height="70" rx="8"/>
    <rect x="370" y="205" width="50" height="70" rx="8"/>
    <rect x="445" y="205" width="50" height="70" rx="8"/>
    <rect x="870" y="265" width="66" height="76" rx="8"/>
    <rect x="965" y="265" width="66" height="76" rx="8"/>
  </g>
  <path d="M160 655h875" stroke="#1f1633" stroke-width="10" stroke-linecap="round" opacity=".16"/>
  <g transform="translate(250 404)">
    <rect x="0" y="92" width="520" height="170" rx="30" fill="url(#van)"/>
    <path d="M520 140h120l78 80v42H520z" fill="#5b21b6"/>
    <rect x="48" y="132" width="250" height="72" rx="14" fill="#fff" opacity=".94"/>
    <text x="72" y="178" font-family="Inter, Arial, sans-serif" font-size="34" fill="#1f1633">Beta Relocation</text>
    <rect x="550" y="162" width="75" height="55" rx="10" fill="#e0f7ff"/>
    <circle cx="128" cy="283" r="48" fill="#1f1633"/>
    <circle cx="128" cy="283" r="22" fill="#fff"/>
    <circle cx="605" cy="283" r="48" fill="#1f1633"/>
    <circle cx="605" cy="283" r="22" fill="#fff"/>
  </g>
  <g transform="translate(760 120)">
    <rect width="285" height="84" rx="42" fill="#fff"/>
    <text x="36" y="54" font-family="Inter, Arial, sans-serif" font-size="30" fill="#5b21b6">Ilford IG1-IG6</text>
  </g>
</svg>
