<svg xmlns="http://www.w3.org/2000/svg" viewBox="0 0 1200 900" role="img" aria-labelledby="title desc">
  <title id="title">Ilford postcode coverage map</title>
  <desc id="desc">Illustrated service area map for Ilford postcodes IG1 to IG6.</desc>
  <rect width="1200" height="900" rx="36" fill="#eaf9ff"/>
  <path d="M170 690C260 510 215 305 398 228c170-71 245 57 382 12 125-41 228 7 263 136 40 150-70 264-164 356-128 126-260 82-397 66-127-15-238 45-312-108z" fill="#f3f0ff" stroke="#7c3aed" stroke-width="8"/>
  <g stroke="#06b6d4" stroke-width="10" stroke-linecap="round" opacity=".7">
    <path d="M180 555h830"/>
    <path d="M285 250c120 140 260 246 520 470"/>
    <path d="M805 230c-60 140-140 250-385 530"/>
  </g>
  <g font-family="Inter, Arial, sans-serif" font-size="42" fill="#1f1633">
    <text x="515" y="455">Ilford</text>
    <text x="360" y="335" font-size="30">Gants Hill</text>
    <text x="675" y="360" font-size="30">Seven Kings</text>
    <text x="710" y="610" font-size="30">Goodmayes</text>
    <text x="300" y="630" font-size="30">Barkingside</text>
  </g>
  <g fill="#7c3aed">
    <circle cx="585" cy="475" r="20"/>
    <circle cx="412" cy="350" r="14"/>
    <circle cx="720" cy="380" r="14"/>
    <circle cx="745" cy="625" r="14"/>
    <circle cx="335" cy="645" r="14"/>
  </g>
  <rect x="118" y="92" width="430" height="100" rx="50" fill="#fff"/>
  <text x="160" y="155" font-family="Inter, Arial, sans-serif" font-size="34" fill="#5b21b6">IG1 · IG2 · IG3 · IG4 · IG5 · IG6</text>
</svg>
